<mxfile host="app.diagrams.net" agent="Mozilla/5.0 (Windows NT 10.0; Win64; x64) AppleWebKit/537.36 (KHTML, like Gecko) Chrome/138.0.0.0 Safari/537.36 Edg/138.0.0.0" version="28.0.7">
  <diagram name="Page-1" id="58cdce13-f638-feb5-8d6f-7d28b1aa9fa0">
    <mxGraphModel dx="1880" dy="1036" grid="1" gridSize="10" guides="1" tooltips="1" connect="1" arrows="1" fold="1" page="1" pageScale="1" pageWidth="1100" pageHeight="850" background="none" math="0" shadow="0">
      <root>
        <mxCell id="0" />
        <mxCell id="1" parent="0" />
        <mxCell id="382b91b5511bd0f7-1" value="" style="ellipse;html=1;shape=startState;fillColor=#000000;strokeColor=#ff0000;rounded=1;shadow=0;comic=0;labelBackgroundColor=none;fontFamily=Verdana;fontSize=12;fontColor=#000000;align=center;direction=south;" parent="1" vertex="1">
          <mxGeometry x="538" y="53" width="30" height="30" as="geometry" />
        </mxCell>
        <mxCell id="382b91b5511bd0f7-6" value="Connect to database db_lasec" style="rounded=1;whiteSpace=wrap;html=1;arcSize=24;fillColor=#ffffc0;strokeColor=#FF0000;shadow=0;comic=0;labelBackgroundColor=none;fontFamily=Verdana;fontSize=12;fontColor=#000000;align=center;" parent="1" vertex="1">
          <mxGeometry x="493" y="124" width="120" height="60" as="geometry" />
        </mxCell>
        <mxCell id="2a3bc250acf0617d-9" style="edgeStyle=orthogonalEdgeStyle;html=1;labelBackgroundColor=none;endArrow=open;endSize=8;strokeColor=#ff0000;fontFamily=Verdana;fontSize=12;align=left;" parent="1" source="382b91b5511bd0f7-1" target="382b91b5511bd0f7-6" edge="1">
          <mxGeometry relative="1" as="geometry" />
        </mxCell>
        <mxCell id="3cde6dad864a17aa-7" style="edgeStyle=elbowEdgeStyle;html=1;labelBackgroundColor=none;endArrow=open;endSize=8;strokeColor=#ff0000;fontFamily=Verdana;fontSize=12;align=left;entryX=0;entryY=0.5;exitX=0;exitY=0.5;exitDx=0;exitDy=0;entryDx=0;entryDy=0;" parent="1" source="-b5_aeEiTCpsvocbng9k-15" target="-b5_aeEiTCpsvocbng9k-6" edge="1">
          <mxGeometry relative="1" as="geometry">
            <mxPoint x="740.4444444444443" y="278" as="sourcePoint" />
            <mxPoint x="740" y="153" as="targetPoint" />
            <Array as="points">
              <mxPoint x="340" y="453" />
            </Array>
          </mxGeometry>
        </mxCell>
        <mxCell id="3cde6dad864a17aa-8" style="edgeStyle=elbowEdgeStyle;html=1;labelBackgroundColor=none;endArrow=open;endSize=8;strokeColor=#ff0000;fontFamily=Verdana;fontSize=12;align=left;entryX=0.5;entryY=0;entryDx=0;entryDy=0;exitX=0.5;exitY=1;exitDx=0;exitDy=0;elbow=horizontal;" parent="1" source="-b5_aeEiTCpsvocbng9k-6" target="-b5_aeEiTCpsvocbng9k-8" edge="1">
          <mxGeometry relative="1" as="geometry">
            <mxPoint x="560" y="423" as="sourcePoint" />
            <mxPoint x="560" y="443" as="targetPoint" />
            <Array as="points" />
          </mxGeometry>
        </mxCell>
        <mxCell id="-b5_aeEiTCpsvocbng9k-22" value="Yes" style="edgeLabel;html=1;align=center;verticalAlign=middle;resizable=0;points=[];" vertex="1" connectable="0" parent="3cde6dad864a17aa-8">
          <mxGeometry x="-0.5543" y="1" relative="1" as="geometry">
            <mxPoint x="14" y="7" as="offset" />
          </mxGeometry>
        </mxCell>
        <mxCell id="24f968d109e7d6b4-3" value="" style="ellipse;html=1;shape=endState;fillColor=#000000;strokeColor=#ff0000;rounded=1;shadow=0;comic=0;labelBackgroundColor=none;fontFamily=Verdana;fontSize=12;fontColor=#000000;align=center;" parent="1" vertex="1">
          <mxGeometry x="830" y="453" width="30" height="30" as="geometry" />
        </mxCell>
        <mxCell id="3cde6dad864a17aa-12" style="edgeStyle=elbowEdgeStyle;html=1;labelBackgroundColor=none;endArrow=open;endSize=8;strokeColor=#ff0000;fontFamily=Verdana;fontSize=12;align=left;exitX=0.5;exitY=1;exitDx=0;exitDy=0;entryX=0.5;entryY=0;entryDx=0;entryDy=0;" parent="1" source="-b5_aeEiTCpsvocbng9k-18" target="24f968d109e7d6b4-3" edge="1">
          <mxGeometry relative="1" as="geometry">
            <mxPoint x="955" y="813.0000000000002" as="sourcePoint" />
            <mxPoint x="840" y="423" as="targetPoint" />
            <Array as="points" />
          </mxGeometry>
        </mxCell>
        <mxCell id="-b5_aeEiTCpsvocbng9k-2" value="Create file ConnectionMonitorLTE_py.pid" style="rounded=1;whiteSpace=wrap;html=1;arcSize=24;fillColor=#ffffc0;strokeColor=#ff0000;shadow=0;comic=0;labelBackgroundColor=none;fontFamily=Verdana;fontSize=12;fontColor=#000000;align=center;" vertex="1" parent="1">
          <mxGeometry x="458" y="224" width="190" height="60" as="geometry" />
        </mxCell>
        <mxCell id="-b5_aeEiTCpsvocbng9k-3" style="edgeStyle=orthogonalEdgeStyle;html=1;labelBackgroundColor=none;endArrow=open;endSize=8;strokeColor=#ff0000;fontFamily=Verdana;fontSize=12;align=left;entryX=0.5;entryY=0;entryDx=0;entryDy=0;" edge="1" parent="1" target="-b5_aeEiTCpsvocbng9k-2">
          <mxGeometry relative="1" as="geometry">
            <mxPoint x="552.7" y="184" as="sourcePoint" />
            <mxPoint x="552.7" y="234" as="targetPoint" />
          </mxGeometry>
        </mxCell>
        <mxCell id="-b5_aeEiTCpsvocbng9k-6" value="Does&amp;nbsp;&lt;span style=&quot;font-family: Verdana;&quot;&gt;ConnectionMonitorLTE_py.pid&amp;nbsp;&lt;/span&gt;&lt;div&gt;&lt;span style=&quot;font-family: Verdana;&quot;&gt;exist ?&lt;/span&gt;&lt;/div&gt;" style="rhombus;whiteSpace=wrap;html=1;fillColor=#FFFFCC;strokeColor=#FF0000;" vertex="1" parent="1">
          <mxGeometry x="413" y="318" width="280" height="121" as="geometry" />
        </mxCell>
        <mxCell id="-b5_aeEiTCpsvocbng9k-7" style="edgeStyle=orthogonalEdgeStyle;html=1;labelBackgroundColor=none;endArrow=open;endSize=8;strokeColor=#ff0000;fontFamily=Verdana;fontSize=12;align=left;exitX=0.5;exitY=1;exitDx=0;exitDy=0;entryX=0.5;entryY=0;entryDx=0;entryDy=0;" edge="1" parent="1" source="-b5_aeEiTCpsvocbng9k-2" target="-b5_aeEiTCpsvocbng9k-6">
          <mxGeometry relative="1" as="geometry">
            <mxPoint x="552.61" y="304" as="sourcePoint" />
            <mxPoint x="553" y="304" as="targetPoint" />
          </mxGeometry>
        </mxCell>
        <mxCell id="-b5_aeEiTCpsvocbng9k-8" value="Execute rf-report" style="rounded=1;whiteSpace=wrap;html=1;arcSize=24;fillColor=#ffffc0;strokeColor=#ff0000;shadow=0;comic=0;labelBackgroundColor=none;fontFamily=Verdana;fontSize=12;fontColor=#000000;align=center;" vertex="1" parent="1">
          <mxGeometry x="458" y="468" width="190" height="60" as="geometry" />
        </mxCell>
        <mxCell id="-b5_aeEiTCpsvocbng9k-9" value="Get SignalStrength, rsrp, rsrq, rssnrm, MCCMNC" style="rounded=1;whiteSpace=wrap;html=1;arcSize=24;fillColor=#ffffc0;strokeColor=#ff0000;shadow=0;comic=0;labelBackgroundColor=none;fontFamily=Verdana;fontSize=12;fontColor=#000000;align=center;" vertex="1" parent="1">
          <mxGeometry x="458" y="558" width="190" height="60" as="geometry" />
        </mxCell>
        <mxCell id="-b5_aeEiTCpsvocbng9k-10" style="edgeStyle=elbowEdgeStyle;html=1;labelBackgroundColor=none;endArrow=open;endSize=8;strokeColor=#ff0000;fontFamily=Verdana;fontSize=12;align=left;entryX=0.5;entryY=0;entryDx=0;entryDy=0;exitX=0.5;exitY=1;exitDx=0;exitDy=0;" edge="1" parent="1" source="-b5_aeEiTCpsvocbng9k-8" target="-b5_aeEiTCpsvocbng9k-9">
          <mxGeometry relative="1" as="geometry">
            <mxPoint x="553" y="513" as="sourcePoint" />
            <mxPoint x="553" y="542" as="targetPoint" />
            <Array as="points" />
          </mxGeometry>
        </mxCell>
        <mxCell id="-b5_aeEiTCpsvocbng9k-11" value="Save SignalStrength, rsrp, rsrq, rssnrm, MCCMNC in db_lasec.LTE_connection_Table" style="rounded=1;whiteSpace=wrap;html=1;arcSize=24;fillColor=#ffffc0;strokeColor=#ff0000;shadow=0;comic=0;labelBackgroundColor=none;fontFamily=Verdana;fontSize=12;fontColor=#000000;align=center;" vertex="1" parent="1">
          <mxGeometry x="448" y="648" width="212" height="60" as="geometry" />
        </mxCell>
        <mxCell id="-b5_aeEiTCpsvocbng9k-13" style="edgeStyle=elbowEdgeStyle;html=1;labelBackgroundColor=none;endArrow=open;endSize=8;strokeColor=#ff0000;fontFamily=Verdana;fontSize=12;align=left;entryX=0.5;entryY=0;entryDx=0;entryDy=0;exitX=0.5;exitY=1;exitDx=0;exitDy=0;" edge="1" parent="1" source="-b5_aeEiTCpsvocbng9k-9" target="-b5_aeEiTCpsvocbng9k-11">
          <mxGeometry relative="1" as="geometry">
            <mxPoint x="780" y="523" as="sourcePoint" />
            <mxPoint x="780" y="553" as="targetPoint" />
            <Array as="points" />
          </mxGeometry>
        </mxCell>
        <mxCell id="-b5_aeEiTCpsvocbng9k-15" value="sleep(10)" style="rounded=1;whiteSpace=wrap;html=1;arcSize=24;fillColor=#ffffc0;strokeColor=#ff0000;shadow=0;comic=0;labelBackgroundColor=none;fontFamily=Verdana;fontSize=12;fontColor=#000000;align=center;" vertex="1" parent="1">
          <mxGeometry x="497.5" y="738" width="111" height="60" as="geometry" />
        </mxCell>
        <mxCell id="-b5_aeEiTCpsvocbng9k-17" style="edgeStyle=elbowEdgeStyle;html=1;labelBackgroundColor=none;endArrow=open;endSize=8;strokeColor=#ff0000;fontFamily=Verdana;fontSize=12;align=left;entryX=0.5;entryY=0;entryDx=0;entryDy=0;exitX=0.5;exitY=1;exitDx=0;exitDy=0;" edge="1" parent="1" source="-b5_aeEiTCpsvocbng9k-11" target="-b5_aeEiTCpsvocbng9k-15">
          <mxGeometry relative="1" as="geometry">
            <mxPoint x="550" y="583" as="sourcePoint" />
            <mxPoint x="551" y="613" as="targetPoint" />
            <Array as="points" />
          </mxGeometry>
        </mxCell>
        <mxCell id="-b5_aeEiTCpsvocbng9k-18" value="Close connection to db_lasec" style="rounded=1;whiteSpace=wrap;html=1;arcSize=24;fillColor=#ffffc0;strokeColor=#ff0000;shadow=0;comic=0;labelBackgroundColor=none;fontFamily=Verdana;fontSize=12;fontColor=#000000;align=center;" vertex="1" parent="1">
          <mxGeometry x="750" y="348.5" width="190" height="60" as="geometry" />
        </mxCell>
        <mxCell id="-b5_aeEiTCpsvocbng9k-21" style="edgeStyle=elbowEdgeStyle;html=1;labelBackgroundColor=none;endArrow=open;endSize=8;strokeColor=#ff0000;fontFamily=Verdana;fontSize=12;align=left;entryX=0;entryY=0.5;entryDx=0;entryDy=0;exitX=1;exitY=0.5;exitDx=0;exitDy=0;elbow=vertical;" edge="1" parent="1" source="-b5_aeEiTCpsvocbng9k-6" target="-b5_aeEiTCpsvocbng9k-18">
          <mxGeometry relative="1" as="geometry">
            <mxPoint x="600" y="433" as="sourcePoint" />
            <mxPoint x="600" y="462" as="targetPoint" />
            <Array as="points" />
          </mxGeometry>
        </mxCell>
        <mxCell id="-b5_aeEiTCpsvocbng9k-23" value="No" style="edgeLabel;html=1;align=center;verticalAlign=middle;resizable=0;points=[];" vertex="1" connectable="0" parent="-b5_aeEiTCpsvocbng9k-21">
          <mxGeometry x="0.1729" relative="1" as="geometry">
            <mxPoint x="-6" as="offset" />
          </mxGeometry>
        </mxCell>
        <mxCell id="-b5_aeEiTCpsvocbng9k-25" value="&lt;h1 style=&quot;margin-top: 0px;&quot;&gt;ConnectionMonitorLTE.py&lt;/h1&gt;" style="text;html=1;whiteSpace=wrap;overflow=hidden;rounded=0;" vertex="1" parent="1">
          <mxGeometry width="320" height="50" as="geometry" />
        </mxCell>
      </root>
    </mxGraphModel>
  </diagram>
</mxfile>
